<svg width="37" height="37" viewBox="0 0 37 37" fill="none" xmlns="http://www.w3.org/2000/svg">
<g filter="url(#filter0_d_0_267)">
<path d="M9.38158 26.0527L10.25 27.3554L17.6316 23.4475L26.3158 27.3554L27.1842 26.9212V25.1843L26.3158 17.8027L31.9605 11.7238V9.98694L22.8421 8.2501L19.0952 1.30273H17.6316L13.2895 8.68431L5.03947 10.4212V11.7238L10.6842 17.8027L9.38158 26.0527Z" fill="#197AFF"/>
<path d="M9.38158 26.0527L10.25 27.3554L17.6316 23.4475L26.3158 27.3554L27.1842 26.9212V25.1843L26.3158 17.8027L31.9605 11.7238V9.98694L22.8421 8.2501L19.0952 1.30273H17.6316L13.2895 8.68431L5.03947 10.4212V11.7238L10.6842 17.8027L9.38158 26.0527Z" stroke="black"/>
</g>
<path fill-rule="evenodd" clip-rule="evenodd" d="M17.8468 0.0781048C17.4387 0.230479 17.0374 0.497489 16.8384 0.749145C16.7328 0.882682 15.8767 2.55093 14.9359 4.45644C13.5068 7.35091 13.2004 7.92705 13.0735 7.95757C12.9901 7.97763 11.2496 8.23696 9.20573 8.53384C6.5486 8.91981 5.40567 9.11076 5.19478 9.20404C4.79914 9.37906 4.33627 9.81676 4.12648 10.2143C3.97385 10.5036 3.95495 10.6106 3.95495 11.1846C3.95495 11.76 3.97366 11.8652 4.1281 12.1579C4.25776 12.4038 4.98647 13.1558 7.03101 15.1539C8.53237 16.621 9.79949 17.8814 9.84677 17.9547C9.92115 18.0699 9.84516 18.5985 9.2823 21.8814C8.92453 23.9679 8.63184 25.7573 8.63184 25.8579C8.63184 26.4755 9.10303 27.2806 9.67614 27.6425C10.0399 27.8721 10.6452 28.0108 11.0582 27.9592C11.4793 27.9067 11.7656 27.7674 15.4377 25.8293C17.0344 24.9866 18.4133 24.2969 18.502 24.2964C18.5907 24.2961 19.9986 25.0005 21.6307 25.8619C25.7052 28.0121 25.5834 27.9561 26.1777 27.9537C26.5708 27.952 26.7393 27.9167 27.0684 27.7671C27.8916 27.3928 28.4475 26.4747 28.3499 25.6509C28.3287 25.4715 28.0324 23.6964 27.6915 21.706C27.1559 18.5796 27.0832 18.0693 27.1574 17.9548C27.2045 17.882 28.4624 16.6319 29.9526 15.1769C33.1187 12.0855 33.0491 12.1752 33.0491 11.1846C33.0491 10.6095 33.0304 10.5044 32.8771 10.2169C32.6523 9.79509 32.2257 9.38732 31.8234 9.20991C31.5778 9.10147 30.6168 8.93942 27.7915 8.52991C25.7514 8.23419 24.0142 7.97627 23.9311 7.95679C23.8048 7.92718 23.4936 7.34207 22.0428 4.4069C20.1676 0.613285 20.1316 0.554968 19.4557 0.208932C19.0443 -0.00163035 18.2363 -0.0673667 17.8468 0.0781048ZM8.39309 1.15059C8.13434 1.30832 7.98674 1.58746 7.98674 1.91911C7.98674 2.11864 8.05454 2.27482 8.29316 2.62518C9.11845 3.83669 9.43545 4.11338 9.89832 4.02654C10.3507 3.94171 10.691 3.44892 10.6046 3.00366C10.5521 2.73285 9.51441 1.3071 9.25444 1.14859C8.99407 0.989834 8.65539 0.990608 8.39309 1.15059ZM27.8094 1.11957C27.6661 1.18188 27.4209 1.45502 27.02 1.99885C26.2691 3.0176 26.2063 3.32248 26.6548 3.77102C27.12 4.2362 27.6138 4.10802 28.1652 3.37879C28.862 2.45739 29.0172 2.18864 29.017 1.90382C29.0166 1.55933 28.818 1.23568 28.534 1.11705C28.2593 1.00222 28.0779 1.00287 27.8094 1.11957ZM18.7767 1.84666C18.8754 1.95678 20.1377 4.45928 21.5345 7.31394C21.9251 8.11226 22.332 8.85194 22.4647 9.00464C22.6001 9.1605 22.8711 9.35951 23.1011 9.47195C23.4722 9.65342 23.7807 9.70832 27.3068 10.2203C30.1039 10.6265 31.1423 10.8002 31.2259 10.8758C31.2902 10.9341 31.3396 11.0701 31.3396 11.189C31.3396 11.3812 31.1017 11.6304 28.5635 14.0981C26.1511 16.4434 25.7624 16.8477 25.5969 17.1841C25.2602 17.8685 25.2611 17.8807 25.9841 22.0762C26.5957 25.6255 26.6315 25.8816 26.5366 26.0264C26.3183 26.3596 26.3348 26.3664 22.6863 24.4494C19.873 22.9711 19.176 22.6301 18.8729 22.5832C18.1117 22.4653 18.0528 22.4895 14.3201 24.4501C10.6688 26.368 10.6864 26.3608 10.4674 26.0266C10.3727 25.882 10.4088 25.6241 11.0202 22.0764C11.7431 17.8811 11.744 17.8698 11.4075 17.1841C11.2421 16.8473 10.8566 16.4461 8.44089 14.0977C5.90427 11.6316 5.66435 11.3803 5.66435 11.1886C5.66435 11.0703 5.71357 10.9347 5.77725 10.8777C5.89143 10.7755 6.00336 10.7575 11.2768 9.99152C13.7767 9.62846 14.0758 9.53795 14.5392 9.00464C14.6719 8.85194 15.0788 8.11226 15.4695 7.31394C16.8662 4.45928 18.1285 1.95678 18.2272 1.84666C18.2829 1.78461 18.4065 1.73377 18.502 1.73377C18.5975 1.73377 18.7211 1.78461 18.7767 1.84666ZM3.23011 19.2374C2.65029 19.435 2.3874 19.56 2.23929 19.7082C1.8481 20.0998 1.95093 20.7698 2.44282 21.0336C2.75499 21.201 2.88194 21.1862 3.89386 20.8636C5.02937 20.5017 5.18052 20.3753 5.18052 19.7875C5.18052 19.4221 5.16665 19.3871 4.93958 19.1789C4.72656 18.9837 4.65921 18.9587 4.35898 18.9632C4.14061 18.9664 3.73748 19.0644 3.23011 19.2374ZM32.0644 19.1789C31.8373 19.3871 31.8234 19.4221 31.8234 19.7875C31.8234 20.373 31.9747 20.5003 33.1015 20.8632C34.1021 21.1854 34.2467 21.2023 34.5611 21.0336C34.8683 20.8689 35.0323 20.5484 34.9947 20.186C34.9482 19.7368 34.6872 19.5417 33.7042 19.2219C32.6702 18.8855 32.3925 18.8783 32.0644 19.1789ZM18.07 29.3377C17.6648 29.5923 17.6311 29.7093 17.6311 30.8603C17.6311 32.0121 17.666 32.1328 18.07 32.3792C18.4591 32.6164 18.9897 32.4829 19.2526 32.0817C19.3818 31.8846 19.4538 30.7115 19.3753 30.0834C19.3107 29.5667 19.0415 29.2743 18.5947 29.2357C18.3529 29.2147 18.2265 29.2393 18.07 29.3377Z" fill="#11346F"/>
<defs>
<filter id="filter0_d_0_267" x="0.539474" y="0.802734" width="35.9211" height="35.2061" filterUnits="userSpaceOnUse" color-interpolation-filters="sRGB">
<feFlood flood-opacity="0" result="BackgroundImageFix"/>
<feColorMatrix in="SourceAlpha" type="matrix" values="0 0 0 0 0 0 0 0 0 0 0 0 0 0 0 0 0 0 127 0" result="hardAlpha"/>
<feOffset dy="4"/>
<feGaussianBlur stdDeviation="2"/>
<feComposite in2="hardAlpha" operator="out"/>
<feColorMatrix type="matrix" values="0 0 0 0 0 0 0 0 0 0 0 0 0 0 0 0 0 0 0.25 0"/>
<feBlend mode="normal" in2="BackgroundImageFix" result="effect1_dropShadow_0_267"/>
<feBlend mode="normal" in="SourceGraphic" in2="effect1_dropShadow_0_267" result="shape"/>
</filter>
</defs>
</svg>
